<svg xmlns="http://www.w3.org/2000/svg" viewBox="0 0 512 512" width="100%" height="100%">
  <rect width="512" height="512" rx="128" fill="#09090B"/>
  <rect x="16" y="16" width="480" height="480" rx="112" fill="none" stroke="#27272A" stroke-width="12"/>
  <!-- Stylized Luxury Architectural Serif 'E' -->
  <g fill="#FFFFFF">
    <!-- Vertical Main Stem -->
    <rect x="140" y="120" width="48" height="272" rx="6"/>
    <!-- Top Horizontal Bar -->
    <path d="M 140 120 L 360 120 C 368 120 372 126 372 134 L 372 156 C 372 164 368 168 360 168 L 188 168 L 188 120 Z"/>
    <!-- Middle Short Bar -->
    <path d="M 188 232 L 320 232 C 326 232 330 236 330 242 L 330 264 C 330 270 326 274 320 274 L 188 274 Z"/>
    <!-- Bottom Horizontal Bar -->
    <path d="M 140 392 L 368 392 C 376 392 380 386 380 378 L 380 356 C 380 348 376 344 368 344 L 188 344 L 188 392 Z"/>
    <!-- Accent Serif Diamond Dots -->
    <circle cx="372" cy="144" r="6" fill="#FFFFFF"/>
    <circle cx="380" cy="368" r="6" fill="#FFFFFF"/>
  </g>
</svg>